{"title":"Arrow 05E02 Recruits 1080p WEB-DL HEVC DD5.1 x265","uid":16026341,"size":726686409,"categoryP":"video","categoryS":"hd___tv_shows","magnet":"?xt=urn:btih:aa16b21942d008bb9601623bc9cd7602ab6cc857&amp;dn=Arrow+05E02+Recruits+1080p+WEB-DL+HEVC+DD5.1+x265&amp;tr=udp%3A%2F%2Ftracker.leechers-paradise.org%3A6969&amp;tr=udp%3A%2F%2Fzer0day.ch%3A1337&amp;tr=udp%3A%2F%2Fopen.demonii.com%3A1337&amp;tr=udp%3A%2F%2Ftracker.coppersurfer.tk%3A6969&amp;tr=udp%3A%2F%2Fexodus.desync.com%3A6969","seeders":10,"leechers":11,"uploader":"nayhtut","files":1,"time":1476388825,"description":"Source: Arrow 05E02 Recruits 1080p WEB-DL DD5.1 H264-DRACULA (1.66 GB)\r\n\r\n\r\nComplete name: Arrow.S05E02.Recruits.1080p.WEB-DL.HEVC.DD5.1.x265.mkv\r\nFormat                                   : Matroska\r\nFormat version                           : Version 4 / Version 2\r\nFile size                                : 693 MiB\r\nDuration                                 : 42mn 20s\r\nOverall bit rate                         : 2 289 Kbps\r\nWriting application                      : Lavf57.25.100\r\nWriting library                          : Lavf57.25.100\r\n\r\nVideo\r\n\r\nID                                       : 1\r\nFormat                                   : V_MPEGH/ISO/HEVC\r\nCodec ID                                 : V_MPEGH/ISO/HEVC\r\nDuration                                 : 42mn 20s\r\nBit rate                                 : 1 859 Kbps\r\nWidth                                    : 1 916 pixels\r\nHeight                                   : 1 076 pixels\r\nDisplay aspect ratio                     : 16:9\r\nFrame rate                               : 25.000 fps\r\nBits/(Pixel*Frame)                       : 0.036\r\nStream size                              : 563 MiB (81%)\r\nWriting library                          : Lavc57.48.101 libx265\r\nLanguage                                 : English\r\nDefault                                  : Yes\r\nForced                                   : No\r\nDURATION                                 : 00:42:20.011000000\r\n\r\nAudio\r\n\r\nID                                       : 2\r\nFormat                                   : AC-3\r\nFormat/Info                              : Audio Coding 3\r\nMode extension                           : CM (complete main)\r\nFormat settings, Endianness              : Big\r\nCodec ID                                 : A_AC3\r\nDuration                                 : 42mn 20s\r\nBit rate mode                            : Constant\r\nBit rate                                 : 384 Kbps\r\nChannel(s)                               : 6 channels\r\nChannel positions                        : Front: L C R, Side: L R, LFE\r\nSampling rate                            : 48.0 KHz\r\nBit depth                                : 16 bits\r\nCompression mode                         : Lossy\r\nStream size                              : 116 MiB (17%)\r\nWriting library                          : Lavc57.24.102 ac3\r\nLanguage                                 : English\r\nDefault                                  : Yes\r\nForced                                   : No\r\nDURATION                                 : 00:42:20.031000000\r\n\r\nText\r\n\r\nID                                       : 3\r\nFormat                                   : ASS\r\nCodec ID                                 : S_TEXT/ASS\r\nCompression mode                         : Lossless\r\nLanguage                                 : English","torrent":{"xt":"urn:btih:aa16b21942d008bb9601623bc9cd7602ab6cc857","amp;dn":"Arrow+05E02+Recruits+1080p+WEB-DL+HEVC+DD5.1+x265","amp;tr":["udp%3A%2F%2Ftracker.leechers-paradise.org%3A6969","udp%3A%2F%2Fzer0day.ch%3A1337","udp%3A%2F%2Fopen.demonii.com%3A1337","udp%3A%2F%2Ftracker.coppersurfer.tk%3A6969","udp%3A%2F%2Fexodus.desync.com%3A6969"],"infoHash":"aa16b21942d008bb9601623bc9cd7602ab6cc857","infoHashBuffer":{"type":"Buffer","data":[170,22,178,25,66,208,8,187,150,1,98,59,201,205,118,2,171,108,200,87]},"announce":[],"urlList":[]}}